# xmcd
#
# Track frame offsets:
# 150
# 12883
# 26921
# 40292
# 53210
# 66980
# 79944
# 93724
# 106898
# 120147
# 132502
# 145666
# 158149
# 171668
# 184828
# 199020
# 212605
# 225494
# 238682
# 250594
# 261809
# 281779
# 293949
# 308808
# 322943
#
# Disc length: 4453 seconds
#
#
# Revision: 3
# Processed by: cddbd v1.5.1PL0 Copyright (c) Steve Scherf et al.
# Submitted via: FreeRIP 2.942 
#
DISCID=6a116319
DTITLE=Jazz Women - 50 Sublimes Chanteuses de Jazz 1940-1953 [CD 2)
DYEAR=2002
DGENRE=Jazz
TTITLE0=47 Etta Jones - I Sold My Heart To The Junkman
TTITLE1=47 Ann Moore and Count Basie Orchestra - Meet Me At No Special Place (And I'll be there at no particular time)
TTITLE2=47 Lil Green - Lonely Woman
TTITLE3=47 Wini Brown and Lionel Hampton Orchestra - Gone Again
TTITLE4=47 Melrose Colbert and Earl Hines Orchestra - Black And Blue
TTITLE5=47 Dinah Washington and Dave Young's Orchestra - Am I Asking Too Much
TTITLE6=47 Dolores Parker and Duke Ellington Orchestra - Take Love Easy
TTITLE7=47 Kay Starr - Don't Let Your Love Go Wrong
TTITLE8=47 Kay Penton and Teddy Wilson Trio - As Time Goes By
TTITLE9=48 Jackie And Roy - Deed I Do
TTITLE10=48 Blue Lu Barker - Trombone Man Blues
TTITLE11=48 Rose Murphy The Chee-Chee Girl - Busy Line
TTITLE12=49 Rae Perl and Todd Dameron Orchestra - Casbah
TTITLE13=49 Addie Williams - Maybe Someday
TTITLE14=49 Betty Carter and Lionel Hampton Orchestra - The Huckle Buck
TTITLE15=49 Pearl Bailey and Hot Lips Page - Baby, It's Cold Outside
TTITLE16=49 Billie Holliday - Them There Eyes
TTITLE17=49 Ella Fitzgerald - Talk Fast My Heart, Talk Fast
TTITLE18=49 Betty Mays and Her Swingtet - Mays' Haze
TTITLE19=50 Nellie Lutcher - That's A Plenty
TTITLE20=50 June Christy and Stan Kenton Orchestra - Lonesome Road
TTITLE21=50 Annie Ross and jack Dieval et son Quartett - Le Vent Vert
TTITLE22=51 Dorothy Ellis and Jake Porter - Slowly Go Out Of My Head
TTITLE23=51 Toni Harper and Harry James Orchestra - Baby Blues
TTITLE24=53 Della Reese - Blue And Orange Birds
EXTD=
EXTT0=
EXTT1=
EXTT2=
EXTT3=
EXTT4=
EXTT5=
EXTT6=
EXTT7=
EXTT8=
EXTT9=
EXTT10=
EXTT11=
EXTT12=
EXTT13=
EXTT14=
EXTT15=
EXTT16=
EXTT17=
EXTT18=
EXTT19=
EXTT20=
EXTT21=
EXTT22=
EXTT23=
EXTT24=
PLAYORDER=
